<?xml version="1.0" encoding="UTF-8" standalone="no"?>
<svg
   xmlns:dc="http://purl.org/dc/elements/1.1/"
   xmlns:cc="http://creativecommons.org/ns#"
   xmlns:rdf="http://www.w3.org/1999/02/22-rdf-syntax-ns#"
   xmlns:svg="http://www.w3.org/2000/svg"
   xmlns="http://www.w3.org/2000/svg"
   xmlns:sodipodi="http://sodipodi.sourceforge.net/DTD/sodipodi-0.dtd"
   xmlns:inkscape="http://www.inkscape.org/namespaces/inkscape"
   viewBox="0 0 160 100"
   version="1.1"
   id="svg1592"
   sodipodi:docname="focals_logo.svg"
   inkscape:version="1.0.2-2 (e86c870879, 2021-01-15)"
   width="160"
   height="100">
  <metadata
     id="metadata1598">
    <rdf:RDF>
      <cc:Work
         rdf:about="">
        <dc:format>image/svg+xml</dc:format>
        <dc:type
           rdf:resource="http://purl.org/dc/dcmitype/StillImage" />
        <dc:title></dc:title>
      </cc:Work>
    </rdf:RDF>
  </metadata>
  <defs
     id="defs1596">
    <inkscape:path-effect
       effect="envelope"
       id="path-effect965"
       is_visible="true"
       lpeversion="1"
       yy="true"
       xx="false"
       bendpath1="m 82.778974,45.669706 c 8.379441,-4.675881 20.661696,-2.63235 24.459356,-0.114185"
       bendpath2="m 105.62304,43.865039 v 6.593945"
       bendpath3="m 83.514539,48.692097 c 7.034806,3.336242 17.763641,3.089941 23.801301,-0.235585"
       bendpath4="m 84.262519,43.865039 v 6.593945"
       bendpath1-nodetypes="cc"
       bendpath3-nodetypes="cc" />
  </defs>
  <sodipodi:namedview
     pagecolor="#ffffff"
     bordercolor="#666666"
     borderopacity="1"
     objecttolerance="10"
     gridtolerance="10"
     guidetolerance="10"
     inkscape:pageopacity="0"
     inkscape:pageshadow="2"
     inkscape:window-width="1920"
     inkscape:window-height="1000"
     id="namedview1594"
     showgrid="false"
     inkscape:zoom="3.765"
     inkscape:cx="72.754379"
     inkscape:cy="62.34756"
     inkscape:window-x="-11"
     inkscape:window-y="-11"
     inkscape:window-maximized="1"
     inkscape:current-layer="svg1592" />
  <g
     aria-label="FOCALS"
     id="text935-8"
     style="font-style:normal;font-variant:normal;font-weight:normal;font-stretch:normal;font-size:8.46667px;line-height:1.25;font-family:Mistral;-inkscape-font-specification:'Mistral, Normal';font-variant-ligatures:normal;font-variant-caps:normal;font-variant-numeric:normal;font-variant-east-asian:normal;letter-spacing:0px;stroke-width:0.264583"
     inkscape:path-effect="#path-effect965"
     transform="matrix(5.3317336,0,0,5.3457473,-431.59267,-201.49431)">
    <path
       d="m 84.158505,48.945093 c -0.01443,-0.0062 -0.02885,-0.01248 -0.04326,-0.01875 -0.01416,-0.0062 -0.0334,-0.01453 -0.05618,-0.02451 -0.0691,-0.03027 -0.113492,-0.06727 -0.13332,-0.109473 -0.01705,-0.04111 -0.0031,-0.08653 0.0383,-0.136961 0.01203,-0.01562 0.04025,-0.04125 0.08371,-0.07838 0.04132,-0.03543 0.09811,-0.0823 0.165192,-0.140553 0.02742,-0.02382 0.06676,-0.06369 0.111678,-0.116966 0.04604,-0.0546 0.07576,-0.09087 0.09908,-0.115709 0.008,-0.0085 0.02407,-0.02208 0.04813,-0.04162 0.02636,-0.01853 0.05654,-0.04591 0.08812,-0.08163 0.03176,-0.03204 0.06784,-0.07177 0.104537,-0.118104 0.02491,-0.04622 0.04254,-0.09239 0.05329,-0.137959 0.05688,-0.06985 0.107883,-0.141572 0.152156,-0.215877 0.0056,-0.01079 0.009,-0.03175 0.0084,-0.06184 0.0019,-0.03056 0.0025,-0.04891 0.0043,-0.05932 0.0016,-0.0098 0.0074,-0.02325 0.01691,-0.04086 0.01202,-0.01874 0.01815,-0.03393 0.01896,-0.04509 0.001,-0.014 -0.0033,-0.02547 -0.01256,-0.0343 -0.0069,-0.0087 -0.01882,-0.0134 -0.0356,-0.01418 -0.01222,0.0022 -0.02641,0.0049 -0.04349,0.0081 -0.0145,0.002 -0.03018,0.0045 -0.04714,0.0076 -0.01446,5.34e-4 -0.03245,0.0022 -0.05422,0.0049 -0.02165,0.0026 -0.04839,0.0056 -0.07969,0.0086 -0.01036,-0.0045 -0.02074,-0.0089 -0.03113,-0.01328 -0.0031,-0.0064 -0.0062,-0.01284 -0.0094,-0.01922 0.02239,-0.01868 0.04394,-0.03727 0.06476,-0.05568 0.0232,-0.01835 0.04332,-0.03731 0.06035,-0.05669 0.01967,-0.01676 0.0438,-0.032 0.07272,-0.04575 0.02899,-0.01378 0.05874,-0.02795 0.08962,-0.04273 0.02472,-0.009 0.0422,-0.03204 0.04949,-0.06958 0.0096,-0.03724 0.0085,-0.09317 -0.01148,-0.165063 -0.02344,-0.07948 -0.05145,-0.152943 -0.06972,-0.203831 -0.01949,-0.05429 -0.03182,-0.09069 -0.0328,-0.112646 -0.0024,-0.01916 -0.0063,-0.0446 -0.01241,-0.07547 -0.0066,-0.0087 -0.02097,-0.02186 -0.04346,-0.03892 -0.02265,-0.01719 -0.03715,-0.02908 -0.04331,-0.0364 -0.03863,-0.07081 -0.0815,-0.140497 -0.127168,-0.208738 -0.06094,-0.09974 -0.09979,-0.212375 -0.11129,-0.344399 -0.01146,-0.131585 -0.0012,-0.289143 0.03578,-0.476535 0.04872,-0.184436 0.216848,-0.385898 0.524221,-0.588697 0.04761,-0.01021 0.09081,-0.01844 0.129475,-0.02478 0.0361,-0.03082 0.0724,-0.06175 0.108908,-0.09278 0.01484,-0.0056 0.0358,-0.0093 0.06277,-0.01078 0.02987,-0.0026 0.06892,-0.0042 0.116564,-0.0046 0.0541,-0.03988 0.103642,-0.0723 0.148459,-0.09712 0.0448,-0.02481 0.08228,-0.04253 0.112261,-0.05314 0.186113,-0.06589 0.341276,-0.09309 0.462871,-0.08275 0.122787,0.007 0.213724,0.05221 0.271858,0.133145 0.03244,0.04517 0.06398,0.09767 0.09413,0.157228 0.03305,0.05872 0.06242,0.123804 0.08777,0.194826 0.03603,0.09289 0.05347,0.165412 0.05493,0.216329 4.9e-5,0.0488 -0.01439,0.07921 -0.04239,0.09159 -0.0896,-0.0096 -0.179749,-0.01537 -0.270283,-0.01745 -0.09192,-0.0043 -0.188137,-0.0079 -0.288329,-0.01036 0.0032,-0.0024 -0.121254,0.09179 -0.118066,0.08937 -0.05063,0.0096 -0.10581,0.01957 -0.166322,0.0302 -0.04727,0.01431 -0.09808,0.03501 -0.152376,0.06193 -0.05316,0.02403 -0.106349,0.05196 -0.159581,0.08359 -0.148267,0.08386 -0.21129,0.155033 -0.195308,0.212947 0.01439,0.05604 0.02411,0.136001 0.02526,0.234468 -0.0073,0.02589 0.01847,0.104439 0.05975,0.243144 0.0413,0.129918 0.09869,0.331356 0.116502,0.558252 0.0017,0.01048 -0.0011,0.02978 -0.0089,0.05708 -0.0054,0.02708 -0.0055,0.04886 1.71e-4,0.06575 0.0079,0.02365 0.01972,0.04169 0.03608,0.05432 0.01584,0.01092 0.03378,0.0166 0.05402,0.01687 0.03372,-0.01474 0.07952,-0.03157 0.137568,-0.05082 0.05998,-0.02123 0.132356,-0.04506 0.217137,-0.07182 0.07814,-0.01462 0.156041,-0.03137 0.233726,-0.05054 0.07963,-0.02136 0.161275,-0.04646 0.244859,-0.07571 -0.0106,0.001 0.106754,-0.01008 0.09615,-0.0091 0.0383,-0.0036 0.08375,-0.0078 0.135121,-0.01247 0.0075,-0.0019 0.249939,-0.0624 0.25748,-0.06428 0.151281,-0.01399 0.27013,-0.0046 0.355897,0.02963 0.08492,0.03179 0.135139,0.08459 0.14853,0.156558 0.0025,0.01358 0.0071,0.05254 0.01136,0.11192 0.0065,0.05682 0.01271,0.136654 0.01492,0.234164 -0.02837,0.05549 -0.05901,0.111555 -0.09207,0.167925 -0.02389,-2.57e-4 -0.08376,-0.0092 -0.181437,-0.0262 -0.09235,-0.01819 -0.240555,-0.04712 -0.413071,-0.07801 -0.06038,0.01327 -0.125932,0.02398 -0.196646,0.03229 -0.0709,0.0062 -0.144297,0.009 -0.220281,0.0088 -0.04843,-1.39e-4 -0.116777,0.0057 -0.206695,0.01679 -0.0868,0.01099 -0.15443,0.01679 -0.201453,0.01811 -0.03117,0.01816 -0.06412,0.03128 -0.09853,0.03962 -0.03201,0.0066 -0.06418,0.0094 -0.09641,0.0086 -0.01758,-4.13e-4 -0.05568,-0.004 -0.1154,-0.01047 -0.03209,-7.05e-4 -0.06157,0.01923 -0.09098,0.05847 -0.02989,0.03816 -0.05584,0.0956 -0.08817,0.175282 -0.01668,0.03449 -0.03472,0.06866 -0.05415,0.102509 0.0036,0.02644 0.0066,0.05307 0.0089,0.07991 -0.04824,0.0953 -0.106934,0.189036 -0.176398,0.281198 -0.0053,0.01146 -0.01068,0.02559 -0.01625,0.04254 -0.0022,0.01587 -0.0075,0.03207 -0.01615,0.04849 -0.102507,0.123834 -0.213985,0.24395 -0.332561,0.364108 -0.114573,0.1194 -0.239403,0.239732 -0.374532,0.363862 -0.02839,0.02608 -0.06921,0.04999 -0.123011,0.07097 -0.0538,0.02098 -0.120293,0.0369 -0.199788,0.04681 0,0 4.8e-5,-8e-6 4.8e-5,-8e-6 z"
       style="font-style:normal;font-variant:normal;font-weight:normal;font-stretch:normal;font-size:8.46667px;font-family:Mistral;-inkscape-font-specification:'Mistral, Normal';font-variant-ligatures:normal;font-variant-caps:normal;font-variant-numeric:normal;font-variant-east-asian:normal;stroke-width:0.264583"
       id="path1011-47"
       inkscape:original-d="m 84.932218,50.458952 q -0.02067,0 -0.04134,0 -0.02067,0 -0.05374,0 -0.09922,0 -0.169499,-0.05788 -0.06615,-0.05788 -0.09095,-0.181901 -0.0083,-0.03721 -0.0124,-0.14056 -0.0041,-0.09922 -0.0041,-0.268717 0,-0.07028 -0.0124,-0.219108 -0.0124,-0.148829 -0.0124,-0.219109 0,-0.0248 0.0083,-0.08682 0.0124,-0.06201 0.01654,-0.169499 0.0083,-0.09922 0.01654,-0.239778 -0.0083,-0.132292 -0.02894,-0.26045 0.02894,-0.219108 0.06615,-0.446484 0.0041,-0.03307 -0.0083,-0.11989 -0.0083,-0.08682 -0.0083,-0.115755 0,-0.02894 0.0124,-0.08268 0.01654,-0.05788 0.01654,-0.09095 0,-0.04134 -0.01654,-0.06615 -0.0124,-0.0248 -0.04134,-0.0248 -0.02067,0.0083 -0.04961,0.02067 -0.02481,0.0083 -0.05374,0.02067 -0.02481,0.0041 -0.06201,0.01654 -0.03721,0.0124 -0.09095,0.02894 l -0.03721,-0.02481 -0.0124,-0.04134 q 0.03721,-0.06615 0.07441,-0.128157 0.04134,-0.06201 0.07441,-0.124024 0.03721,-0.05374 0.09095,-0.09508 0.05374,-0.04134 0.111621,-0.08268 0.04548,-0.02481 0.07441,-0.132292 0.03307,-0.107487 0.04961,-0.314192 0.01654,-0.235645 0.03721,-0.384473 0.02067,-0.148828 0.04134,-0.202572 0.01654,-0.04961 0.04134,-0.128158 0,-0.0248 -0.0124,-0.07855 -0.0124,-0.05374 -0.0124,-0.07441 0.02894,-0.190169 0.05788,-0.367936 0.04961,-0.256315 0.206705,-0.512631 0.157097,-0.256315 0.42168,-0.537435 0.272852,-0.268717 0.789616,-0.388607 0.05788,0.0124 0.103353,0.02481 l 0.136426,-0.04961 q 0.02067,0 0.04961,0.0124 0.03307,0.0124 0.08268,0.03721 0.09508,-0.02894 0.165365,-0.04134 0.07028,-0.0124 0.111621,-0.0124 0.256315,0 0.380338,0.07028 0.128158,0.06615 0.128158,0.206706 0,0.07855 -0.0124,0.177767 -0.0083,0.09922 -0.03307,0.214974 -0.02894,0.152963 -0.06615,0.231511 -0.03721,0.07441 -0.08268,0.08268 -0.107487,-0.04961 -0.219108,-0.09095 -0.111621,-0.04548 -0.23151,-0.09508 l -0.148828,0.05788 q -0.07028,-0.0083 -0.152963,-0.02067 -0.07028,0 -0.16123,0.01654 -0.08682,0.0124 -0.181901,0.03721 -0.26045,0.06201 -0.301791,0.173632 -0.04134,0.107487 -0.14056,0.293523 -0.03307,0.04134 -0.107487,0.334863 -0.07028,0.293522 -0.190169,0.835092 -0.0041,0.0248 -0.03307,0.08682 -0.02481,0.06201 -0.02481,0.103353 0,0.05788 0.02067,0.09095 0.02067,0.02894 0.05374,0.03307 0.06201,-0.02894 0.165365,-0.06201 0.107487,-0.03721 0.256315,-0.07855 0.132292,-0.01654 0.264584,-0.04134 0.136425,-0.02894 0.28112,-0.07028 0.04134,0 0.103352,0 0.06201,0 0.144695,0 0.140559,-0.0248 0.285254,-0.04961 0.239778,0 0.359668,0.07028 0.119889,0.06615 0.119889,0.190169 0,0.0248 -0.0083,0.128158 -0.0041,0.09922 -0.01654,0.268717 -0.05374,0.09509 -0.111621,0.194304 -0.03721,0 -0.190169,-0.02894 -0.152962,-0.03307 -0.434082,-0.09508 -0.09922,0.02481 -0.214974,0.04134 -0.115756,0.0124 -0.239779,0.0124 -0.07855,0 -0.227377,0.0248 -0.144694,0.0248 -0.223242,0.02894 -0.05374,0.04134 -0.111621,0.06201 -0.05374,0.01654 -0.107487,0.01654 -0.02894,0 -0.128158,-0.0124 -0.05374,0 -0.103352,0.09922 -0.04961,0.09508 -0.08682,0.297656 l -0.04134,0.177767 0.02894,0.128158 -0.07855,0.49196 q 0,0.02894 0.0041,0.07028 0.0083,0.03721 0.0083,0.07855 -0.05374,0.330729 -0.07855,0.649056 -0.02067,0.314193 -0.02067,0.628386 0,0.06615 -0.02894,0.14056 -0.02894,0.07441 -0.09095,0.148828 z" />
    <path
       d="m 87.915811,46.998711 c -0.0041,-0.03302 8.4e-5,-0.07256 0.01202,-0.119083 0.0146,-0.04663 0.03699,-0.100217 0.06679,-0.161472 0.0425,-0.07971 0.07247,-0.144323 0.0902,-0.190036 0.02056,-0.04627 0.03053,-0.07648 0.0304,-0.08967 0.0072,-0.02948 0.01647,-0.06951 0.02698,-0.118387 0.01327,-0.04937 0.02729,-0.10608 0.04154,-0.169951 0.01959,-0.03169 0.03516,-0.09774 0.04359,-0.197767 0.0076,-0.102294 0.01032,-0.238744 0.0032,-0.406877 0.0078,-0.04641 0.01399,-0.10149 0.01812,-0.165124 0.0032,-0.06712 0.0074,-0.144201 0.01229,-0.236016 -0.01257,-0.06478 -0.02008,-0.14243 -0.02301,-0.233451 -0.0029,-0.09094 -0.0022,-0.194016 0.002,-0.309306 0.01839,-0.11225 0.03955,-0.224931 0.06399,-0.338048 0.02444,-0.1131 0.09053,-0.208709 0.201141,-0.285721 0.06686,0.02042 0.120947,0.04396 0.162361,0.07017 0.04143,0.02622 0.06809,0.05401 0.08024,0.083 0.0304,0.07252 0.03506,0.176581 0.014,0.310368 -0.01919,0.130182 -0.02122,0.215906 -0.0051,0.258858 0.0086,0.02291 0.02979,0.04208 0.06355,0.05773 0.01929,-0.01542 0.04948,-0.05711 0.09047,-0.125548 0.04118,-0.06874 0.09387,-0.160807 0.15933,-0.278855 0.05606,-0.09125 0.108736,-0.166712 0.158353,-0.226226 0.05151,-0.06297 0.10597,-0.106015 0.163278,-0.128641 0.03457,-0.02191 0.08063,-0.04422 0.138216,-0.06672 0.05759,-0.0225 0.120412,-0.0538 0.188765,-0.09401 0.03309,-0.02804 0.05852,-0.05486 0.07619,-0.08048 0.01558,-0.02201 0.04374,-0.0461 0.0846,-0.07218 0.02515,9.11e-4 0.05029,0.0019 0.07541,0.0029 0.03769,0.02367 0.1256,0.04094 0.263862,0.05392 0.137662,0.0099 0.222123,0.01345 0.257112,0.0088 0.03274,0.0121 0.07292,0.03321 0.120059,0.06346 0.04719,0.03029 0.105788,0.06253 0.175691,0.09716 0.144329,0.06211 0.286974,0.163958 0.424851,0.306228 0.140227,0.138729 0.273993,0.317838 0.398403,0.537581 0.114727,0.200241 0.203915,0.394541 0.269359,0.579824 0.06844,0.185277 0.112512,0.36616 0.133483,0.540793 0.06596,0.549249 0.04405,1.032425 -0.0516,1.433931 -0.09603,0.403141 -0.268631,0.729254 -0.51076,0.974048 -0.02243,0.02448 -0.05168,0.05625 -0.08581,0.09288 -0.03147,0.03378 -0.07211,0.0755 -0.12139,0.12403 -2.3e-4,0.01758 -4.88e-4,0.03516 -7.75e-4,0.05274 -0.0063,0.03166 -0.02419,0.06591 -0.05386,0.10253 -0.02671,0.03356 -0.06533,0.07283 -0.115959,0.117289 -0.110359,0.101053 -0.224288,0.202084 -0.341896,0.302393 -0.117451,0.09723 -0.239951,0.190722 -0.367669,0.280111 -0.160218,0.117131 -0.314377,0.203707 -0.458761,0.26166 -0.144422,0.05797 -0.282813,0.0915 -0.412856,0.102164 -0.06248,0.03921 -0.136929,0.06544 -0.222947,0.07854 -0.08242,0.01067 -0.180279,0.0061 -0.293054,-0.01378 -0.165944,-0.02923 -0.298264,-0.06441 -0.395813,-0.103282 -0.09698,-0.04173 -0.161694,-0.08626 -0.194746,-0.13288 -0.0194,-0.02966 -0.04318,-0.06002 -0.07126,-0.09104 -0.02813,-0.03108 -0.06001,-0.06975 -0.09592,-0.116021 -0.03963,-0.04423 -0.06809,-0.115329 -0.08805,-0.213251 -0.0194,-0.101116 -0.02883,-0.224862 -0.03368,-0.374788 -9.66e-4,-0.110648 -0.0013,-0.216622 -5.7e-4,-0.317106 0.0038,-0.102977 0.0093,-0.197025 0.01744,-0.28279 0.0025,-0.02621 0.01314,-0.06795 0.03092,-0.126898 0.01769,-0.05864 0.02535,-0.104128 0.02407,-0.135463 0.0027,-0.05985 0.0014,-0.112234 -0.0033,-0.156681 7.91e-4,-0.04727 0.01627,-0.119642 0.04333,-0.220964 0.02689,-0.100732 0.03693,-0.182424 0.03285,-0.242436 -8.91e-4,-0.01308 -0.0103,-0.03281 -0.02838,-0.05892 -0.03905,0.04706 -0.06692,0.0896 -0.08343,0.128208 -0.01456,0.02569 -0.03233,0.04474 -0.05308,0.05721 -0.02074,0.01247 -0.04047,0.01844 -0.05909,0.01804 -0.02928,-6.23e-4 -0.05362,-0.01264 -0.07327,-0.03581 -0.01703,-0.02315 -0.02668,-0.05736 -0.02976,-0.102916 -0.0021,-0.03054 0.0013,-0.07565 0.0088,-0.136753 0.01013,-0.06086 0.01259,-0.108284 0.0085,-0.141179 0,0 3e-5,1.1e-5 3e-5,1.1e-5 z m 2.045164,-2.300804 c -0.07133,0.009 -0.141466,0.02762 -0.210228,0.05558 -0.06877,0.02797 -0.136517,0.06371 -0.203236,0.106995 -0.310259,0.210087 -0.05698,0.0386 -0.36724,0.248683 -0.02453,0.01859 -0.05064,0.04645 -0.07846,0.08347 -0.02497,0.03666 -0.05064,0.08519 -0.07745,0.145566 -0.04161,0.09065 -0.0836,0.180361 -0.12608,0.269041 -0.04206,0.08209 -0.05893,0.220916 -0.06108,0.419738 -0.0021,0.198037 0.0091,0.452401 0.01502,0.762605 0.0044,0.237841 0.0034,0.45785 0.001,0.663309 -0.0025,0.201879 -0.009,0.389721 -0.01556,0.561337 -0.0136,0.353929 0.0042,0.619548 0.09005,0.812723 0.08512,0.187887 0.237328,0.301324 0.465405,0.330427 0.106273,0.01356 0.230178,6.48e-4 0.369365,-0.04107 0.139482,-0.04468 0.293221,-0.120011 0.457258,-0.228479 0.139694,-0.09216 0.261402,-0.188508 0.365312,-0.287473 0.104068,-0.102109 0.189131,-0.20878 0.255398,-0.318796 0.02843,-0.04213 0.0738,-0.133945 0.131194,-0.27362 0.05999,-0.139063 0.14108,-0.333886 0.235003,-0.581026 0.06109,-0.181408 0.103559,-0.366354 0.127438,-0.55324 0.02361,-0.190084 0.02407,-0.385908 6.43e-4,-0.585539 -0.02849,-0.09606 -0.05909,-0.190272 -0.09178,-0.28257 7.3e-4,-0.06957 0.0011,-0.139209 0.0011,-0.208924 -0.03451,-0.0371 -0.0644,-0.07104 -0.0896,-0.101968 -0.01261,-0.02512 -0.02318,-0.04562 -0.0315,-0.06125 -0.144814,-0.340916 -0.320524,-0.58894 -0.515446,-0.743907 -0.19591,-0.158352 -0.414554,-0.220891 -0.646537,-0.191609 0,0 -7e-6,-3e-6 -7e-6,-3e-6 z"
       style="font-style:normal;font-variant:normal;font-weight:normal;font-stretch:normal;font-size:8.46667px;font-family:Mistral;-inkscape-font-specification:'Mistral, Normal';font-variant-ligatures:normal;font-variant-caps:normal;font-variant-numeric:normal;font-variant-east-asian:normal;stroke-width:0.264583"
       id="path1013-0"
       inkscape:original-d="m 87.91705,47.164061 q 0,-0.05374 0.02894,-0.128157 0.03307,-0.07441 0.09508,-0.169499 0.08682,-0.124023 0.128158,-0.194303 0.04548,-0.07028 0.04961,-0.09095 0.02067,-0.04547 0.05374,-0.119889 0.03721,-0.07441 0.08268,-0.169499 0.04134,-0.04548 0.09508,-0.194304 0.05374,-0.152962 0.124023,-0.401009 0.03307,-0.06615 0.07028,-0.157096 0.03721,-0.09509 0.09095,-0.223243 0.01654,-0.09508 0.06201,-0.223242 0.04548,-0.128157 0.115756,-0.285254 0.08682,-0.148828 0.181901,-0.293522 0.09508,-0.144694 0.272851,-0.214974 0.07028,0.04548 0.107487,0.09095 0.03721,0.04548 0.03721,0.08682 0,0.103353 -0.09508,0.276986 -0.09095,0.169498 -0.09095,0.23151 0,0.03307 0.03721,0.06201 0.03307,-0.01654 0.11989,-0.09922 0.08682,-0.08268 0.227376,-0.223242 0.115755,-0.107487 0.206706,-0.173633 0.09508,-0.07028 0.177767,-0.08682 0.05374,-0.02067 0.136426,-0.03721 0.08268,-0.01654 0.186035,-0.05374 0.05374,-0.02894 0.08682,-0.05788 0.02894,-0.0248 0.09095,-0.04961 l 0.06201,0.0124 q 0.03721,0.03721 0.206705,0.07855 0.169499,0.03721 0.214974,0.03721 0.03721,0.02067 0.08682,0.06614 0.04961,0.04548 0.128158,0.09922 0.165364,0.09922 0.305924,0.293522 0.144694,0.19017 0.260449,0.475424 0.107487,0.260449 0.161231,0.496094 0.05788,0.235644 0.05788,0.454753 0,0.690397 -0.173633,1.198893 -0.173633,0.508497 -0.525033,0.835092 -0.03307,0.03307 -0.08268,0.08268 -0.04548,0.04547 -0.115756,0.111621 v 0.04547 q -0.0083,0.04134 -0.04961,0.09095 -0.03721,0.04547 -0.107487,0.107487 -0.152962,0.14056 -0.310059,0.285254 -0.157096,0.14056 -0.322461,0.276986 -0.206706,0.177767 -0.392741,0.28112 -0.186035,0.103353 -0.359668,0.144694 -0.07441,0.06615 -0.186035,0.103353 -0.107487,0.03307 -0.264584,0.03307 -0.23151,0 -0.376204,-0.02894 -0.144694,-0.03307 -0.206706,-0.09095 -0.03721,-0.03721 -0.08682,-0.07441 -0.04961,-0.03721 -0.115756,-0.09508 -0.07028,-0.05374 -0.132291,-0.194304 -0.06201,-0.144694 -0.111622,-0.37207 -0.03307,-0.169499 -0.05374,-0.326596 -0.01654,-0.16123 -0.01654,-0.297656 0,-0.04134 0.02067,-0.136426 0.02067,-0.09508 0.01654,-0.144694 0,-0.09508 -0.0083,-0.165365 0,-0.07441 0.04548,-0.235644 0.04547,-0.161231 0.04547,-0.256315 0,-0.02067 -0.02481,-0.06201 -0.06615,0.07441 -0.09508,0.136426 -0.0248,0.04134 -0.05788,0.06201 -0.03307,0.02067 -0.06201,0.02067 -0.04547,0 -0.07441,-0.03721 -0.02481,-0.03721 -0.02481,-0.111621 0,-0.04961 0.02067,-0.148828 0.02481,-0.09922 0.02481,-0.152963 z m 2.480469,-2.021582 q -0.09922,0 -0.202571,0.0248 -0.103353,0.02481 -0.21084,0.07028 l -0.40101,0.177767 q -0.04134,0.02067 -0.09508,0.06615 -0.04961,0.04547 -0.111621,0.124024 l -0.19017,0.235644 q -0.09095,0.107487 -0.16123,0.392741 -0.07028,0.285254 -0.124024,0.744141 -0.04134,0.3514 -0.05788,0.657325 -0.01654,0.30179 -0.01654,0.558105 0,0.525033 0.161231,0.785482 0.16123,0.256316 0.487825,0.256316 0.152963,0 0.343132,-0.07855 0.190169,-0.08268 0.413412,-0.248047 0.190169,-0.140559 0.334863,-0.281119 0.144694,-0.144695 0.239779,-0.293523 0.04134,-0.05788 0.128157,-0.243913 0.09095,-0.186035 0.248047,-0.508496 0.103353,-0.235644 0.161231,-0.475423 0.05788,-0.243913 0.05788,-0.500228 -0.0248,-0.124024 -0.05374,-0.243913 l 0.02894,-0.177767 q -0.04134,-0.04961 -0.07028,-0.09095 -0.0124,-0.03307 -0.02067,-0.05374 -0.128157,-0.446485 -0.347265,-0.669727 -0.219109,-0.227376 -0.54157,-0.227376 z" />
    <path
       d="m 96.687361,49.234317 c -0.08267,0.08093 -0.187618,0.175019 -0.314361,0.280956 -0.123625,0.105762 -0.272196,0.223003 -0.44493,0.349494 -0.07636,0.05344 -0.148828,0.103319 -0.217474,0.149758 -0.07165,0.04816 -0.139022,0.09251 -0.202141,0.133168 -0.12061,0.07609 -0.22347,0.132792 -0.307599,0.170387 -0.122696,0.06498 -0.254948,0.11054 -0.396223,0.136432 -0.14113,0.02932 -0.286396,0.04241 -0.435178,0.03921 -0.04648,-9.98e-4 -0.09937,-0.01075 -0.158494,-0.02929 -0.05596,-0.01506 -0.116541,-0.03374 -0.181643,-0.05609 -0.08033,-0.02613 -0.148805,-0.04894 -0.204077,-0.06774 -0.05553,-0.0189 -0.101661,-0.03075 -0.138579,-0.03553 -2.47e-4,-2.81e-4 -0.05503,-0.0629 -0.05528,-0.06318 -0.04448,-0.0085 -0.08892,-0.01702 -0.133315,-0.02563 -0.05821,-0.0058 -0.128473,-0.04096 -0.210192,-0.105515 -0.07872,-0.06442 -0.164178,-0.15271 -0.256365,-0.26486 -0.08916,-0.105164 -0.161357,-0.204459 -0.216947,-0.297542 -0.05262,-0.09297 -0.09037,-0.176762 -0.113476,-0.251315 -0.03884,-0.145494 -0.07821,-0.290699 -0.118247,-0.435527 -0.04154,-0.148292 -0.07338,-0.267309 -0.09503,-0.357821 -0.02165,-0.09049 -0.03151,-0.148767 -0.02916,-0.175331 0.01437,-0.07434 0.02837,-0.148768 0.04203,-0.223288 -0.02551,-0.0775 -0.04608,-0.140103 -0.06242,-0.190673 -0.01332,-0.05006 -0.02057,-0.08832 -0.02164,-0.114902 -0.0011,-0.02746 0.0029,-0.106939 0.01058,-0.243947 0.0074,-0.133233 0.01748,-0.328432 0.02611,-0.56864 0.01683,-0.04669 0.03431,-0.103491 0.05225,-0.170359 0.01795,-0.06687 0.03364,-0.142214 0.04689,-0.225966 -0.0074,-0.03667 -0.01485,-0.07333 -0.02238,-0.109972 -0.0023,-0.0267 -6.53e-4,-0.05682 0.005,-0.09037 0.0083,-0.03694 0.01907,-0.07731 0.03239,-0.121137 0.05138,-0.165238 0.101767,-0.332694 0.151543,-0.502591 0.04982,-0.170072 0.0995,-0.335054 0.149916,-0.496136 0.04561,-0.123383 0.107315,-0.251265 0.185718,-0.383272 0.08137,-0.132047 0.176651,-0.270427 0.286293,-0.41417 0.02374,-0.03503 0.05243,-0.08035 0.08639,-0.136273 0.03391,-0.05583 0.07519,-0.117172 0.123925,-0.183793 0.04904,-0.03587 0.107134,-0.08901 0.175038,-0.159607 0.07095,-0.07441 0.153664,-0.16697 0.25103,-0.279543 0.03032,-0.01447 0.06647,-0.03418 0.108679,-0.05913 0.04169,-0.02465 0.09406,-0.05548 0.154299,-0.0906 0.01505,-0.01057 0.03271,-0.02806 0.05308,-0.05245 0.02354,-0.02444 0.05023,-0.05065 0.08008,-0.07857 0.03222,-0.03452 0.156824,-0.0886 0.374532,-0.158021 0.217797,-0.06944 0.363197,-0.102642 0.430646,-0.102057 0.06232,5.41e-4 0.120753,0.0033 0.17524,0.0083 0.07568,0.0068 0.143777,0.01771 0.204187,0.03271 0.103854,0.02237 0.186704,0.05846 0.248448,0.107781 0.05156,0.01145 0.103039,0.02298 0.15444,0.0346 0.128546,0.03417 0.223027,0.14129 0.283357,0.320218 0.06051,0.17947 0.08976,0.434411 0.09313,0.768391 0.0016,0.156894 0.0019,0.282094 4.46e-4,0.377698 -0.0015,0.09191 -0.0048,0.154701 -0.01024,0.188716 -0.0161,0.101666 -0.0344,0.231219 -0.05408,0.387551 -0.0168,0.153151 -0.03966,0.331943 -0.06775,0.536553 -9.42e-4,0.05467 -0.01834,0.144848 -0.0516,0.271284 -0.03035,0.122759 -0.07093,0.276954 -0.120782,0.46174 -0.05215,0.20258 -0.09647,0.356064 -0.134938,0.463096 -0.03849,0.103135 -0.07196,0.160034 -0.100778,0.170652 -0.08091,0.02492 -0.165955,0.05158 -0.255313,0.08003 -0.03817,0.01174 -0.07709,0.02379 -0.1168,0.03614 -0.06441,2.1e-5 -0.110064,-0.0051 -0.136984,-0.01541 -0.02712,-0.01372 -0.04145,-0.03431 -0.043,-0.06175 -0.0014,-0.02401 9.06e-4,-0.06176 0.0068,-0.113216 0.0088,-0.05146 0.01266,-0.08748 0.01151,-0.108077 -0.01607,-0.130432 -0.03217,-0.262469 -0.04835,-0.396378 -0.0026,-0.04795 0.0039,-0.142534 0.01977,-0.283136 0.01583,-0.139975 0.0417,-0.321599 0.07785,-0.540438 0.0382,-0.240281 0.07401,-0.428629 0.1068,-0.565822 0.0052,-0.02262 0.01038,-0.04387 0.01539,-0.06373 0,0 0,0 0,0 0,0 0,0 0,0 0.02617,-0.103762 0.04904,-0.170061 0.06815,-0.198823 0.08393,-0.09264 0.144527,-0.179774 0.181296,-0.261814 0.0397,-0.08545 0.05875,-0.162305 0.05665,-0.230841 -0.0029,-0.09593 -0.02688,-0.18007 -0.07239,-0.252504 -0.0424,-0.07239 -0.106202,-0.127896 -0.191598,-0.166257 -0.02954,-0.0077 -0.0593,-0.01507 -0.08929,-0.02223 0,0 0,0 0,0 0,0 0,0 0,0 0,0 0,0 0,0 0,0 0,0 0,0 0,0 0,0 0,0 -0.05282,-0.01293 -0.106306,-0.02508 -0.160463,-0.03644 -0.0819,-0.02123 -0.164112,-0.04567 -0.246769,-0.07333 -0.06413,0.02739 -0.12214,0.04806 -0.174285,0.06194 -0.04876,0.0138 -0.09209,0.02616 -0.128483,0.0366 -0.206136,0.03896 -0.398393,0.148027 -0.574021,0.326289 -0.172903,0.178566 -0.327837,0.42304 -0.467333,0.734159 -0.113017,0.268787 -0.197882,0.538705 -0.257049,0.807982 -0.05946,0.265892 -0.0936,0.533087 -0.103882,0.800387 -0.0058,0.07989 -0.01362,0.184376 -0.02319,0.304741 -0.0099,0.118112 -0.02616,0.259053 -0.04937,0.420723 0.03133,0.101353 0.05911,0.194783 0.08326,0.27939 -0.0074,0.153726 -0.01566,0.307335 -0.0249,0.460816 5.84e-4,0.0169 0.0149,0.0526 0.04289,0.107193 0.02781,0.05107 0.07122,0.128248 0.129729,0.230878 0.03388,0.05825 0.06514,0.126675 0.09367,0.205259 0.02852,0.07858 0.05138,0.167311 0.06835,0.266071 0.0065,0.0239 0.01738,0.04962 0.03277,0.07715 0.01837,0.02761 0.03813,0.05017 0.05929,0.06768 0.04552,0.04529 0.08954,0.08544 0.13206,0.120474 0.131825,0.159658 0.271194,0.282045 0.41846,0.366834 0.150088,0.08137 0.309089,0.123197 0.475818,0.124882 0.015,1.52e-4 0.07103,-0.0078 0.167009,-0.02427 0.09891,-0.01642 0.234294,-0.0433 0.404186,-0.0812 0.02883,-0.02403 0.06667,-0.04809 0.113473,-0.07225 0.04983,-0.02417 0.10849,-0.05014 0.175961,-0.07801 0.03211,-0.0397 0.06457,-0.0726 0.09745,-0.09871 0.02421,-0.01937 0.04864,-0.03506 0.07331,-0.04709 0.058,-0.03181 0.112442,-0.04821 0.163528,-0.04918 0.01326,-0.02423 0.02916,-0.05368 0.04762,-0.0883 0.02147,-0.03468 0.04865,-0.07291 0.0815,-0.114698 0.08671,-0.0429 0.164816,-0.09772 0.23434,-0.164368 0.06927,-0.07007 0.134499,-0.150299 0.19585,-0.240671 0.14205,0.293856 0.216882,0.448464 0.21841,0.465497 0,0 -3.6e-5,3e-6 -3.6e-5,3e-6 z"
       style="font-style:normal;font-variant:normal;font-weight:normal;font-stretch:normal;font-size:8.46667px;font-family:Mistral;-inkscape-font-specification:'Mistral, Normal';font-variant-ligatures:normal;font-variant-caps:normal;font-variant-numeric:normal;font-variant-east-asian:normal;stroke-width:0.264583"
       id="path1015-1"
       inkscape:original-d="m 96.267964,49.04095 q -0.124024,0.09508 -0.310059,0.219108 -0.181901,0.124024 -0.429948,0.272852 -0.223242,0.128158 -0.396875,0.223242 -0.169499,0.09095 -0.285254,0.136426 -0.169499,0.07855 -0.359668,0.111621 -0.19017,0.03721 -0.388607,0.03721 -0.06201,0 -0.14056,-0.02067 -0.07441,-0.01654 -0.161231,-0.04134 -0.107487,-0.02894 -0.181901,-0.04961 -0.07441,-0.02067 -0.124023,-0.02481 l -0.04961,-0.04961 -0.119889,-0.01654 q -0.07855,-0.0041 -0.190169,-0.07855 -0.107487,-0.07441 -0.235645,-0.206705 -0.124023,-0.124024 -0.202572,-0.235645 -0.07441,-0.111621 -0.107487,-0.202572 L 92.472845,48.75983 q -0.05788,-0.181901 -0.08682,-0.293522 -0.02894,-0.111621 -0.0248,-0.144694 l 0.04547,-0.186035 q -0.03307,-0.09508 -0.05374,-0.157097 -0.01654,-0.06201 -0.01654,-0.09508 0,-0.03307 0.02067,-0.202572 0.02067,-0.169499 0.05788,-0.471289 0.02894,-0.05788 0.06201,-0.14056 0.03307,-0.08268 0.06201,-0.186035 l -0.0124,-0.09095 q 0,-0.03307 0.0124,-0.07441 0.01654,-0.04547 0.04134,-0.09922 0.09508,-0.202572 0.19017,-0.409277 0.09508,-0.206706 0.190169,-0.40101 0.08268,-0.148828 0.21084,-0.305924 0.132292,-0.157097 0.30179,-0.326595 0.03721,-0.04134 0.09095,-0.107488 0.05374,-0.06614 0.128157,-0.144694 0.07028,-0.04134 0.169499,-0.124023 0.103353,-0.08682 0.243913,-0.219108 0.04134,-0.01654 0.09922,-0.04548 0.05788,-0.02894 0.14056,-0.07028 0.02067,-0.0124 0.04961,-0.04134 0.03307,-0.02894 0.07441,-0.06201 0.04548,-0.04134 0.33073,-0.124024 0.285254,-0.08268 0.37207,-0.08268 0.190169,0 0.322461,0.02894 0.132292,0.0248 0.21084,0.08268 l 0.132292,0.02481 q 0.165364,0.03721 0.243913,0.252181 0.07855,0.214974 0.07855,0.620117 0,0.19017 -0.0041,0.305925 -0.0041,0.111621 -0.0124,0.152962 -0.0248,0.124024 -0.05788,0.314193 -0.02894,0.186035 -0.07855,0.434082 -0.0041,0.06615 -0.05788,0.219108 -0.04961,0.148828 -0.132292,0.372071 -0.08682,0.243913 -0.148828,0.37207 -0.06201,0.124024 -0.103353,0.136426 -0.165365,0.04134 -0.355534,0.09095 -0.09095,0 -0.128157,-0.0124 -0.03721,-0.01654 -0.03721,-0.04961 0,-0.02894 0.0124,-0.09095 0.01654,-0.06201 0.01654,-0.08682 -0.0124,-0.157097 -0.0248,-0.318327 0,-0.05788 0.03307,-0.227377 0.03307,-0.169498 0.09922,-0.434082 0.07028,-0.289388 0.124024,-0.454753 0.05374,-0.169498 0.08682,-0.210839 0.11989,-0.111622 0.173633,-0.21084 0.05788,-0.103353 0.05788,-0.186036 0,-0.115755 -0.05788,-0.202571 -0.05374,-0.08682 -0.165365,-0.132292 -0.107487,-0.02481 -0.219108,-0.04547 -0.107487,-0.02481 -0.214974,-0.05788 -0.08682,0.03307 -0.157096,0.04961 -0.06615,0.01654 -0.115755,0.02894 -0.276986,0.04548 -0.533301,0.256316 -0.252181,0.210839 -0.483692,0.58291 -0.190169,0.322461 -0.305925,0.649056 -0.115755,0.322461 -0.157096,0.649056 -0.01654,0.09922 -0.04134,0.248047 -0.02481,0.144694 -0.07028,0.343132 0.03721,0.124023 0.06615,0.227376 l -0.04134,0.376205 q 0,0.02067 0.03721,0.08682 0.03721,0.06201 0.115755,0.186036 0.04547,0.07028 0.08268,0.165364 0.03721,0.09509 0.05788,0.214974 0.0083,0.02894 0.02894,0.06201 0.0248,0.03307 0.05374,0.05374 0.06201,0.05374 0.119889,0.09508 0.177767,0.19017 0.376205,0.289388 0.202572,0.09508 0.429948,0.09508 0.02067,0 0.152962,-0.02067 0.136426,-0.02067 0.372071,-0.06615 0.04134,-0.02894 0.107487,-0.05788 0.07028,-0.02894 0.165365,-0.06201 0.08268,-0.08268 0.165364,-0.115755 0.08268,-0.03721 0.152963,-0.03721 0.02067,-0.02894 0.04961,-0.07028 0.03307,-0.04134 0.08268,-0.09095 0.124024,-0.04961 0.227377,-0.128157 0.103353,-0.08268 0.198437,-0.19017 0.165365,0.359669 0.165365,0.380339 z" />
    <path
       d="m 96.460275,48.297588 c -0.01153,-0.03732 -0.01811,-0.06793 -0.01978,-0.09179 -0.0046,-0.02381 -0.0075,-0.04425 -0.0086,-0.06129 -0.0078,-0.112509 -0.0023,-0.208252 0.01613,-0.287023 0.0182,-0.0822 0.04915,-0.150919 0.09271,-0.206111 0.01089,-0.0138 0.03897,-0.03468 0.08421,-0.06259 0.04332,-0.02514 0.0983,-0.05459 0.164827,-0.08825 0,0 0,0 0,0 0,0 0,0 0,0 0.0074,-0.0037 0.01498,-0.0075 0.02268,-0.01127 0.05373,-0.03094 0.09544,-0.06683 0.125203,-0.107652 0.03249,-0.04422 0.04846,-0.09675 0.04804,-0.157639 0.0062,-0.04738 0.02079,-0.10156 0.04396,-0.162402 0.02316,-0.06082 0.05061,-0.126719 0.08237,-0.197447 0.0112,-0.02105 0.03979,-0.135713 0.0908,-0.348167 0.04349,-0.181157 0.130344,-0.551862 0.226593,-0.926855 0.02882,-0.122952 0.05868,-0.228998 0.08899,-0.31805 0.03017,-0.08864 0.05682,-0.165208 0.0786,-0.227216 0.09998,-0.278646 0.187131,-0.45953 0.251219,-0.541542 0.06784,-0.08586 0.118891,-0.155195 0.152786,-0.20944 4.58e-4,-0.0083 9.19e-4,-0.01651 0.0014,-0.02477 0.02569,0.05019 -0.155224,-0.30305 -0.129529,-0.252856 0.06498,-0.07037 0.130791,-0.140297 0.197504,-0.209737 0.07956,-0.01039 0.159267,-0.02045 0.239116,-0.03017 0.04762,-0.0026 0.09399,-0.04474 0.140455,-0.126186 0.04955,-0.08106 0.129474,-0.167706 0.241081,-0.257988 0.02325,-0.0042 0.06073,-0.01999 0.113178,-0.04715 0.05649,-0.03029 0.126571,-0.07117 0.213809,-0.123451 0.0761,-0.0467 0.141287,-0.07963 0.194292,-0.09907 0.05306,-0.01946 0.09286,-0.02735 0.118847,-0.02396 0.08785,0.01146 0.147974,0.03759 0.180218,0.07768 0.03229,0.04015 0.04281,0.08859 0.03227,0.145538 -0.01293,0.06992 -0.06815,0.165495 -0.162247,0.290304 -0.09372,0.12431 -0.143658,0.223238 -0.153075,0.293047 -0.0043,0.03189 -0.0016,0.05969 0.0078,0.08334 0.01298,0.0208 0.02834,0.03537 0.04606,0.04374 0.172099,0.123664 0.341338,0.2463 0.509169,0.368379 0.02865,0.01596 0.04858,0.0688 0.06096,0.158476 0.01285,0.08697 0.01702,0.204485 0.01523,0.355153 0.004,0.126551 0.0071,0.229779 0.0084,0.314927 0.0045,0.08152 0.0051,0.146803 0.0013,0.196348 -0.03042,0.13142 -0.05869,0.264782 -0.08475,0.400123 0.02115,0.175193 0.0478,0.359978 0.08101,0.552512 -0.01781,0.181817 -0.03307,0.366953 -0.04556,0.555982 7.16e-4,0.0186 0.0042,0.03567 0.01057,0.05119 0.009,0.01244 0.02063,0.02023 0.03487,0.02338 0.0481,0.0033 0.08393,0.01729 0.107607,0.04198 0.02651,0.02467 0.04082,0.05844 0.04319,0.10145 0.003,0.0553 -0.003,0.09988 -0.0172,0.133901 -0.01205,0.0309 -0.03145,0.0558 -0.05831,0.07471 -0.03487,0.02518 -0.06292,0.04732 -0.0841,0.06629 -0.01836,0.01892 -0.03128,0.03471 -0.03878,0.04728 0.02594,0.09597 0.05293,0.191692 0.08101,0.287164 -0.0033,0.220862 -0.0012,0.442604 0.0058,0.665195 0.0083,0.05613 0.01496,0.127762 0.0206,0.215709 0.0056,0.08799 0.01001,0.189971 0.01386,0.307087 -0.01351,0.08666 -0.02186,0.159231 -0.02541,0.21685 -0.0036,0.05768 -0.0033,0.0961 5.63e-4,0.114869 0.02554,0.05187 0.05063,0.106907 0.07538,0.165134 6.12e-4,0.08634 3.31e-4,0.173082 -9.21e-4,0.260166 0.0017,0.08669 0.0036,0.172235 0.0057,0.25616 -0.0061,0.114232 -0.02957,0.200064 -0.07186,0.257707 -0.0414,0.0607 -0.09911,0.0959 -0.173054,0.104894 -0.04003,0.0049 -0.07558,-0.01061 -0.106312,-0.04651 -0.02688,-0.03305 -0.04896,-0.08647 -0.06581,-0.160132 -0.0073,-0.03199 -0.01329,-0.07901 -0.01766,-0.140758 -0.0013,-0.06211 -0.0053,-0.109071 -0.01215,-0.141063 -0.0048,-0.02242 -0.01427,-0.05242 -0.02829,-0.09024 -0.01401,-0.03777 -0.02387,-0.07111 -0.02967,-0.09989 -0.01785,-0.08849 -0.03893,-0.233775 -0.05866,-0.428813 -0.01756,-0.200717 -0.03177,-0.347229 -0.04695,-0.447336 -0.02276,-0.05329 -0.04543,-0.108266 -0.06798,-0.164937 1.69e-4,-0.06121 -0.0023,-0.122207 -0.0073,-0.183007 -0.0054,-0.06399 -0.01418,-0.122962 -0.02636,-0.176978 0.01642,-0.04406 0.03296,-0.08803 0.04961,-0.131883 -0.03533,-0.147291 -0.06853,-0.294889 -0.09969,-0.442776 -3.6e-5,-1.6e-5 -0.03115,-0.01368 -0.03119,-0.01369 -0.01713,3.74e-4 -0.04218,0.0089 -0.07512,0.02569 -0.03035,0.01351 -0.06853,0.03686 -0.114429,0.07019 -0.03325,0.01369 -0.08647,0.02952 -0.15972,0.0475 -0.07062,0.01468 -0.166351,0.02517 -0.287107,0.0312 -0.0494,0.0306 -0.0962,0.05796 -0.140464,0.08206 -0.06504,0.01801 -0.14641,0.04962 -0.244167,0.09506 -0.09813,0.04219 -0.211355,0.09479 -0.340287,0.158209 -0.07495,0.04534 -0.144854,0.08231 -0.209813,0.110829 -0.06231,0.02509 -0.115478,0.03821 -0.159454,0.03928 -0.03517,8.57e-4 -0.0632,0.01669 -0.08406,0.04757 -0.02086,0.03087 -0.03617,0.07516 -0.04578,0.132852 -0.004,0.05416 -0.0194,0.128953 -0.04602,0.224488 -0.02361,0.09528 -0.0568,0.215239 -0.09922,0.359035 -0.0082,0.03755 -0.01888,0.09575 -0.03185,0.174325 -0.01297,0.0786 -0.02695,0.176077 -0.04176,0.292378 -0.01338,0.04476 -0.02851,0.101525 -0.04537,0.170347 -0.01724,0.06546 -0.03619,0.142867 -0.05691,0.232467 0.0045,0.04079 0.0057,0.09197 0.0034,0.153545 2.36e-4,0.03366 -6.55e-4,0.07082 -0.0027,0.111484 0,0 0,0 0,0 0,0 0,0 0,10e-7 0,0 0,0 0,0 0,0 0,0 0,0 0,0 0,0 0,0 0,0 0,0 0,0 0,0 0,0 0,0 -0.0015,0.02948 -0.0035,0.0608 -0.0062,0.09397 -0.0099,0.04826 -0.0246,0.108858 -0.04416,0.181521 -0.01605,0.07594 -0.03913,0.159182 -0.06941,0.249479 -0.01863,0.0556 -0.05015,0.09632 -0.09466,0.122094 -0.04409,0.02918 -0.104107,0.04524 -0.179847,0.04793 -0.05365,0.0019 -0.09688,-0.01723 -0.129464,-0.05731 -0.03539,-0.03658 -0.05712,-0.09587 -0.0653,-0.177873 -0.0089,-0.08884 -0.0095,-0.191597 -0.0022,-0.308311 0.0077,-0.113274 0.02503,-0.238853 0.05186,-0.376623 0.02574,-0.182493 0.04851,-0.329869 0.06851,-0.443588 0.01995,-0.113446 0.02901,-0.197554 0.0272,-0.252157 0.0069,-0.02416 0.01663,-0.06712 0.02925,-0.129022 0.01265,-0.062 0.02703,-0.137308 0.04339,-0.226677 0.01962,-0.08595 0.03676,-0.183602 0.05167,-0.293165 -4.6e-5,-7.3e-5 -0.02544,-0.04018 -0.02549,-0.04026 2.21e-4,-4.6e-5 -0.14037,0.02915 -0.14015,0.02911 -0.03286,-0.0026 -0.05774,-0.01737 -0.07462,-0.04434 -0.01687,-0.02694 -0.02696,-0.06259 -0.03024,-0.106939 -0.0018,-0.02388 -6.75e-4,-0.04952 0.0033,-0.07693 0.0037,-0.03082 0.01,-0.06683 0.01881,-0.107987 0,0 -1.22e-4,1.5e-5 -1.22e-4,1.5e-5 z m 1.526714,-0.952806 c 0.06664,-4.47e-4 0.163641,-0.01938 0.291376,-0.05634 0.127565,-0.0369 0.224463,-0.05524 0.290487,-0.05553 0.04079,0.0096 0.08146,0.01754 0.122015,0.02382 0.07078,-0.01663 0.139952,-0.03476 0.207541,-0.05437 0.06741,-0.02284 0.136369,-0.04229 0.206857,-0.05842 0.02819,-0.0065 0.04898,-0.0177 0.06242,-0.03364 0.01327,-0.01916 0.0192,-0.04307 0.01784,-0.07176 -0.01017,-0.0951 -0.01547,-0.161682 -0.01669,-0.19618 -0.0021,-0.06057 -0.0013,-0.127567 0.0027,-0.200749 0.0068,-0.07634 0.01693,-0.154168 0.03054,-0.233331 -0.01782,-0.07207 -0.03524,-0.14427 -0.05226,-0.2166 0.006,-0.06516 0.01233,-0.130262 0.01909,-0.195316 -0.01047,-0.07052 -0.01919,-0.136413 -0.02629,-0.197378 -0.0041,-0.06404 -0.0024,-0.116701 0.0049,-0.157808 -0.0054,-0.01312 -0.01481,-0.03432 -0.02828,-0.0639 -0.01347,-0.02955 -0.0283,-0.06082 -0.04449,-0.09382 -0.02694,-0.05607 -0.05537,-0.109171 -0.0854,-0.159304 -0.02692,-0.05315 -0.05378,-0.106437 -0.08057,-0.15984 -0.03812,-0.06385 -0.08001,-0.111986 -0.125983,-0.144286 -0.04595,-0.03229 -0.09434,-0.05021 -0.145054,-0.05355 -0.05966,-0.0039 -0.123838,0.04405 -0.190467,0.144856 -0.06654,0.100663 -0.129811,0.256557 -0.185702,0.467475 -0.0093,0.02616 -0.03482,0.07868 -0.07645,0.159656 -0.0387,0.0811 -0.09414,0.185651 -0.165868,0.316169 -0.01036,0.12532 -0.04712,0.281217 -0.108279,0.469348 -0.06106,0.184233 -0.145579,0.403927 -0.250651,0.657518 -0.01325,0.02342 -0.02085,0.0435 -0.02283,0.06022 -1.47e-4,-0.0026 0.0033,0.05778 0.0031,0.05515 0.0013,0.0234 0.0068,0.04176 0.01629,0.05507 0.01221,0.0099 0.02848,0.01485 0.04879,0.01471 0.02903,-1.95e-4 0.07522,-0.0039 0.138577,-0.01097 0.06622,-0.0071 0.113799,-0.01077 0.14272,-0.01097 0,0 7e-6,6.3e-5 7e-6,6.3e-5 z"
       style="font-style:normal;font-variant:normal;font-weight:normal;font-stretch:normal;font-size:8.46667px;font-family:Mistral;-inkscape-font-specification:'Mistral, Normal';font-variant-ligatures:normal;font-variant-caps:normal;font-variant-numeric:normal;font-variant-east-asian:normal;stroke-width:0.264583"
       id="path1017-4"
       inkscape:original-d="m 96.127404,48.280273 q -0.0124,-0.04548 -0.0124,-0.07441 -0.0041,-0.02894 -0.0041,-0.04961 0,-0.136426 0.03307,-0.23151 0.03307,-0.09922 0.09922,-0.165365 0.01654,-0.01654 0.08268,-0.04961 0.07028,-0.03307 0.181901,-0.07855 0.07855,-0.03721 0.124023,-0.08682 0.04961,-0.05374 0.05374,-0.128157 0.0124,-0.05788 0.04961,-0.132292 0.03721,-0.07441 0.08682,-0.161231 0.01654,-0.0248 0.09922,-0.285254 0.08268,-0.260449 0.231511,-0.764811 0.04134,-0.152963 0.08268,-0.264584 0.04134,-0.111621 0.07028,-0.190169 0.132292,-0.3514 0.214974,-0.458887 0.08682,-0.111621 0.128158,-0.181901 v -0.02067 l -0.128158,-0.202571 0.161231,-0.186036 0.206706,-0.04134 q 0.06201,-0.0083 0.111621,-0.115755 0.05374,-0.107487 0.181901,-0.235645 0.02894,-0.0083 0.09095,-0.04961 0.06615,-0.04548 0.165365,-0.124024 0.08682,-0.07028 0.148828,-0.103352 0.06201,-0.03307 0.09508,-0.03307 0.111621,0 0.16123,0.04547 0.04961,0.04548 0.04961,0.119889 0,0.09095 -0.09508,0.264584 -0.09508,0.173633 -0.09508,0.264583 0,0.04134 0.01654,0.07028 0.02067,0.02481 0.04548,0.03307 l 0.496094,0.268718 q 0.04134,0.01654 0.07441,0.132291 0.03307,0.111622 0.05374,0.310059 0.02481,0.165365 0.03721,0.276986 0.01654,0.107487 0.01654,0.173633 -0.02894,0.177767 -0.05788,0.359668 0.04134,0.23151 0.09095,0.487826 -0.0248,0.243912 -0.05374,0.496094 0,0.0248 0.0083,0.04547 0.0124,0.01654 0.03307,0.02067 0.07028,0.0041 0.103353,0.03721 0.03721,0.03307 0.03721,0.09095 0,0.07441 -0.02481,0.119889 -0.02067,0.04134 -0.06201,0.06615 -0.05374,0.03307 -0.08682,0.05788 -0.02894,0.02481 -0.04134,0.04134 l 0.05374,0.256315 -0.07441,0.587045 q 0,0.07441 -0.0124,0.190169 -0.0124,0.115755 -0.03721,0.268718 -0.04134,0.111621 -0.06201,0.186035 -0.02067,0.07441 -0.02067,0.09922 0.02067,0.07028 0.03721,0.148828 -0.02481,0.111621 -0.05374,0.223242 -0.02481,0.111621 -0.04961,0.219108 -0.04548,0.144694 -0.11989,0.21084 -0.07441,0.07028 -0.173633,0.07028 -0.05374,0 -0.08268,-0.04961 -0.02481,-0.04548 -0.02481,-0.14056 0,-0.04134 0.0124,-0.11989 0.01654,-0.07855 0.01654,-0.119889 0,-0.02894 -0.0083,-0.07855 -0.0083,-0.04961 -0.0083,-0.08682 0,-0.115755 0.02067,-0.367936 0.02481,-0.256315 0.02481,-0.384473 -0.02067,-0.07028 -0.04134,-0.144694 0.0124,-0.07855 0.01654,-0.157096 0.0041,-0.08268 -0.0041,-0.152963 l 0.06201,-0.111621 -0.05374,-0.384472 -0.02894,-0.0124 q -0.02481,0 -0.07441,0.02067 -0.04548,0.01654 -0.115756,0.05788 -0.04961,0.01654 -0.157096,0.03721 -0.103353,0.01654 -0.276986,0.02067 -0.07441,0.03721 -0.14056,0.06615 -0.09509,0.02067 -0.239779,0.07441 -0.144694,0.04961 -0.334863,0.124023 -0.111621,0.05374 -0.206706,0.08682 -0.09095,0.02894 -0.152962,0.02894 -0.04961,0 -0.08268,0.03721 -0.03307,0.03721 -0.05374,0.107487 -0.0124,0.06615 -0.06201,0.181901 -0.04547,0.115755 -0.124023,0.289388 -0.01654,0.04547 -0.04548,0.14056 -0.02894,0.09508 -0.06614,0.235645 -0.02481,0.05374 -0.05788,0.136425 -0.03307,0.07855 -0.07441,0.186036 0,0.04961 -0.0124,0.124023 -0.0083,0.07028 -0.02894,0.165365 -0.02067,0.05788 -0.05788,0.144694 -0.03307,0.09095 -0.08682,0.198437 -0.03307,0.06615 -0.09508,0.09508 -0.06201,0.03307 -0.161231,0.03307 -0.07028,0 -0.107487,-0.04961 -0.04134,-0.04548 -0.04134,-0.144694 0,-0.107487 0.02481,-0.248047 0.02481,-0.136426 0.07855,-0.301791 0.05788,-0.219108 0.09922,-0.355534 0.04134,-0.136426 0.04547,-0.202572 0.0124,-0.02894 0.03721,-0.103352 0.02481,-0.07441 0.05788,-0.181902 0.03721,-0.103352 0.07028,-0.235644 l -0.02067,-0.03307 -0.132291,0.02067 q -0.04548,-0.0041 -0.06615,-0.03721 -0.02067,-0.03307 -0.02067,-0.08682 0,-0.02894 0.0083,-0.06201 0.0083,-0.03721 0.02481,-0.08682 z m 1.500684,-0.760678 q 0.09508,0 0.28112,-0.04548 0.186035,-0.04547 0.28112,-0.04547 0.05788,0.0124 0.115755,0.02067 0.103353,-0.02067 0.202572,-0.04547 0.09922,-0.02894 0.202572,-0.04961 0.04134,-0.0083 0.06201,-0.02894 0.02067,-0.02481 0.02067,-0.06201 -0.0083,-0.124023 -0.0083,-0.169499 0,-0.07855 0.0083,-0.173632 0.0124,-0.09922 0.03307,-0.202572 l -0.04961,-0.186035 0.01654,-0.169499 q -0.01654,-0.09095 -0.02894,-0.169499 -0.0083,-0.08268 0,-0.136426 -0.0083,-0.01654 -0.02894,-0.05374 -0.02067,-0.03721 -0.04547,-0.07855 -0.04134,-0.07028 -0.08682,-0.132292 -0.04134,-0.06615 -0.08268,-0.132292 -0.05788,-0.07855 -0.124023,-0.115755 -0.06615,-0.03721 -0.136426,-0.03721 -0.08268,0 -0.169499,0.132292 -0.08682,0.132291 -0.16123,0.401009 -0.0124,0.03307 -0.07028,0.136426 -0.05374,0.103353 -0.157097,0.268717 -0.01654,0.157097 -0.111621,0.392741 -0.09508,0.231511 -0.264583,0.545704 -0.02067,0.02894 -0.02481,0.04961 0,0.02067 0,0.04548 0,0.02894 0.0124,0.04548 0.01654,0.0124 0.04548,0.0124 0.04134,0 0.132291,-0.0083 0.09508,-0.0083 0.136426,-0.0083 z" />
    <path
       d="m 103.11322,48.281749 c 0.17562,0.194481 0.27881,0.290351 0.28373,0.30219 -0.0176,0.04961 -0.0311,0.101525 -0.0405,0.155709 -0.009,0.05417 -0.0204,0.110587 -0.0332,0.169314 -0.0134,0.05086 -0.0391,0.09825 -0.0777,0.142084 -0.0387,0.04381 -0.0883,0.08499 -0.14915,0.123144 -0.0866,0.05759 -0.16815,0.114251 -0.24464,0.170163 -0.009,0.0061 -0.0176,0.01216 -0.0263,0.01821 0,0 0,0 0,0 -0.0664,0.04758 -0.12644,0.09397 -0.17991,0.13917 -0.0679,0.05559 -0.14894,0.101276 -0.24311,0.136057 -0.0687,0.02337 -0.20084,0.06828 -0.26952,0.09165 -0.0584,0.02988 -0.11979,0.05278 -0.18411,0.06843 -0.0602,0.01791 -0.11728,0.03197 -0.17102,0.04215 -0.0448,0.0085 -0.0832,0.01256 -0.1152,0.01229 -0.0309,0.0026 -0.059,6.3e-5 -0.0841,-0.0078 -0.0331,-0.01253 -0.0662,-0.0252 -0.0991,-0.03799 -0.0299,-0.01331 -0.0592,-0.02528 -0.0879,-0.03589 -0.062,-0.02122 -0.10472,-0.03598 -0.13772,-0.04691 -0.0423,-0.01488 -0.088,-0.06976 -0.1348,-0.164824 -0.0436,-0.09491 -0.0924,-0.237393 -0.13975,-0.423569 -0.0328,-0.129026 -0.0479,-0.344032 -0.0329,-0.631894 0.0152,-0.291116 0.0235,-0.475061 0.01,-0.571011 -0.003,-0.0205 -0.009,-0.04804 -0.0195,-0.0829 -0.0104,-0.03771 -0.0169,-0.06839 -0.0198,-0.09177 -0.01,-0.07795 -0.007,-0.273196 0.0275,-0.5581 0.0376,-0.296131 0.0648,-0.486478 0.0653,-0.604183 2.7e-4,-0.05497 -0.0199,-0.0948 -0.0612,-0.119726 -0.0385,-0.0277 -0.0574,-0.0665 -0.056,-0.116109 0.002,-0.06996 0.0105,-0.148615 0.0264,-0.235291 0.0159,-0.08664 0.0421,-0.181608 0.0795,-0.283742 0.0266,-0.07304 0.0631,-0.173298 0.0897,-0.246341 0.0302,-0.08478 0.0615,-0.166326 0.0937,-0.244644 0.0343,-0.09271 0.0707,-0.186519 0.10935,-0.281307 0.0415,-0.0944 0.0801,-0.186101 0.11536,-0.275312 0.0317,-0.05995 0.0781,-0.133135 0.14022,-0.217384 0.062,-0.08409 0.13778,-0.180111 0.2279,-0.284888 0.0451,-0.05151 0.0858,-0.09799 0.12364,-0.141694 0.0384,-0.04613 0.0801,-0.09463 0.12519,-0.145177 0.0411,-0.03943 0.0916,-0.07072 0.1515,-0.09364 0.061,-0.02568 0.13186,-0.04434 0.21263,-0.05568 0.0647,-0.006 0.12109,-0.0077 0.1688,-0.0052 0.0489,-2.61e-4 0.0815,0.0017 0.0972,0.0055 0.0852,0.0208 0.13442,0.06161 0.14829,0.121244 0.0183,0.05803 0.004,0.136402 -0.0406,0.23687 -0.0139,0.03172 -0.0328,0.06787 -0.0564,0.108821 -0.0196,0.03899 -0.0491,0.08268 -0.088,0.131699 -0.0339,0.05308 -0.0635,0.09801 -0.0901,0.135452 -0.0242,0.03921 -0.0413,0.06708 -0.0563,0.09107 -0.025,0.06328 -0.0486,0.120815 -0.0714,0.172958 -0.0225,0.05216 -0.0446,0.100052 -0.0667,0.143796 -0.0268,0.02906 -0.0606,0.06345 -0.10161,0.104377 -0.0531,0.121414 -0.0954,0.227407 -0.12734,0.310295 -0.0288,0.08132 -0.0456,0.140899 -0.0519,0.175407 -0.0208,0.113608 -0.0748,0.251335 -0.15534,0.419867 -0.077,0.16503 -0.11405,0.296389 -0.11858,0.385702 -0.002,0.03835 -0.0111,0.08829 -0.0265,0.150713 -0.0155,0.05987 -0.0371,0.131142 -0.064,0.215969 -0.0228,0.08838 -0.0445,0.179511 -0.0673,0.267886 -0.0138,0.06417 -0.022,0.101909 -0.0269,0.116394 -0.003,0.04275 -0.006,0.08915 -0.0105,0.145967 -9.2e-4,0.05577 -0.005,0.121038 -0.0106,0.19679 -0.0308,0.302909 -0.035,0.566186 -0.0278,0.769116 0.01,0.201654 0.0315,0.356852 0.0573,0.457455 0.0239,0.09316 0.0539,0.163983 0.0882,0.211858 0.0344,0.04796 0.072,0.0688 0.11189,0.06289 0.17964,-0.0266 0.35336,-0.07439 0.52098,-0.140943 0.0844,-0.03317 0.16852,-0.07075 0.25261,-0.112493 0.0871,-0.04122 0.17381,-0.08688 0.2601,-0.136687 0.0214,-0.006 0.0404,-0.01432 0.0571,-0.02494 1.4e-4,-8e-5 0.0583,-0.03297 0.0584,-0.03305 0.0209,-0.04012 0.0345,-0.07615 0.041,-0.108276 0.0289,-0.02522 0.0537,-0.04967 0.0744,-0.07334 0.0198,-0.02612 0.0357,-0.05147 0.0476,-0.07609 0,0 -6.8e-4,1.1e-4 -6.8e-4,1.1e-4 z"
       style="font-style:normal;font-variant:normal;font-weight:normal;font-stretch:normal;font-size:8.46667px;font-family:Mistral;-inkscape-font-specification:'Mistral, Normal';font-variant-ligatures:normal;font-variant-caps:normal;font-variant-numeric:normal;font-variant-east-asian:normal;stroke-width:0.264583"
       id="path1019-91"
       inkscape:original-d="m 102.48981,48.660611 q 0.16536,0.359669 0.16536,0.380339 -0.0537,0.07441 -0.0992,0.157097 -0.0455,0.08268 -0.0992,0.169498 -0.0496,0.07441 -0.12816,0.128158 -0.0786,0.05374 -0.1819,0.09095 -0.14883,0.05788 -0.28112,0.115755 -0.13229,0.05374 -0.23978,0.107487 -0.11989,0.05788 -0.26045,0.07855 -0.13643,0.01654 -0.26458,0.03307 -0.091,0.02481 -0.1819,0.02894 -0.0868,0.0083 -0.16124,0.0083 -0.062,0 -0.10335,-0.0083 -0.0413,-0.0041 -0.0703,-0.02067 -0.0372,-0.02481 -0.0744,-0.04961 -0.0331,-0.02481 -0.0661,-0.04548 -0.0703,-0.04134 -0.10748,-0.06201 -0.0496,-0.02894 -0.0744,-0.165365 -0.0207,-0.136426 -0.0207,-0.396875 0,-0.181901 0.10335,-0.578776 0.10336,-0.396875 0.10336,-0.529167 0,-0.02894 -0.008,-0.07855 -0.008,-0.05374 -0.008,-0.08682 0,-0.115755 0.0785,-0.525033 0.0827,-0.413411 0.0827,-0.574642 0,-0.07855 -0.062,-0.111621 -0.0579,-0.03721 -0.0579,-0.107487 0,-0.09922 0.0165,-0.223242 0.0165,-0.124024 0.0579,-0.272852 0.0331,-0.119889 0.062,-0.239779 0.0289,-0.124023 0.0579,-0.239778 0.0289,-0.136426 0.0579,-0.276986 0.0331,-0.14056 0.0537,-0.272852 0.0248,-0.09095 0.0785,-0.223242 0.0537,-0.132292 0.12816,-0.301791 0.0372,-0.08268 0.0662,-0.152962 0.0289,-0.07441 0.062,-0.157096 0.0331,-0.06615 0.0951,-0.115756 0.062,-0.05374 0.15297,-0.09508 0.0744,-0.02894 0.13229,-0.04134 0.0579,-0.01654 0.0786,-0.01654 0.11162,0 0.16123,0.07855 0.0537,0.07441 0.0537,0.231511 0,0.04961 -0.008,0.115755 -0.004,0.06201 -0.0289,0.144694 -0.0165,0.08682 -0.0331,0.148828 -0.0124,0.06201 -0.0207,0.09922 -0.004,0.09922 -0.0124,0.181901 -0.008,0.08268 -0.0207,0.152963 -0.0248,0.04961 -0.0661,0.119889 -0.0289,0.194303 -0.0496,0.326595 -0.0165,0.128158 -0.0165,0.181901 0,0.173633 -0.091,0.438217 -0.0868,0.260449 -0.0868,0.396875 0,0.05788 -0.0207,0.152962 -0.0207,0.09095 -0.062,0.219108 -0.0455,0.173633 -0.0744,0.268718 -0.0248,0.09508 -0.0331,0.115755 -0.008,0.06201 -0.0207,0.144694 -0.008,0.08268 -0.0289,0.194304 -0.0951,0.450618 -0.1447,0.748275 -0.0455,0.293522 -0.0455,0.44235 0,0.136426 0.0289,0.21084 0.0289,0.07441 0.0868,0.07441 0.26045,0 0.52504,-0.05788 0.26872,-0.05788 0.5581,-0.169498 0.0331,-0.0041 0.062,-0.01654 0.0331,-0.0124 0.0661,-0.02481 0.0496,-0.05788 0.0744,-0.107487 0.0538,-0.03307 0.0951,-0.06614 0.0413,-0.03721 0.0703,-0.07441 z" />
    <path
       d="m 105.69831,47.66785 c 0.0991,0.04948 0.20663,0.09574 0.32343,0.138812 -0.0132,0.02717 -0.0666,0.06911 -0.16284,0.124395 -0.0934,0.05402 -0.22612,0.121525 -0.39763,0.197444 -0.0833,0.220663 -0.18583,0.430257 -0.32538,0.627263 -0.13588,0.194622 -0.30192,0.366737 -0.50131,0.509018 -0.0466,0.03233 -0.10138,0.06878 -0.16431,0.109123 -0.046,0.01541 -0.10227,0.02445 -0.16827,0.02646 -0.0643,0.0042 -0.13931,0.0031 -0.22392,-0.0041 -0.092,-0.01324 -0.16675,-0.03149 -0.22416,-0.05356 -0.0574,-0.02211 -0.0963,-0.05126 -0.1169,-0.0866 -0.0412,-0.07075 -0.0379,-0.150132 0.007,-0.236062 0.0451,-0.08613 0.12948,-0.176427 0.25007,-0.271577 0.24179,-0.197251 0.45864,-0.379222 0.67078,-0.559178 0.0395,-0.01101 0.0718,-0.01236 0.0973,-0.0041 0.0243,0.0064 0.0425,0.01889 0.0547,0.03769 0.0331,0.05063 0.0154,0.108839 -0.0585,0.1762 -0.0728,0.06469 -0.10477,0.105567 -0.0939,0.12155 0.0316,0.01431 0.0541,0.01927 0.067,0.01517 0.034,-0.01076 0.0796,-0.07269 0.13826,-0.182015 0.0607,-0.109235 0.0832,-0.170196 0.0684,-0.187696 -0.0204,-0.01916 -0.0404,-0.03841 -0.06,-0.05775 -1e-5,-0.0044 -1e-5,-0.0087 -1e-5,-0.01307 0.0359,-0.06045 0.058,-0.110143 0.0668,-0.14999 0.0111,-0.04052 0.0112,-0.07003 1.4e-4,-0.08933 -0.0254,-0.04427 -0.086,-0.09439 -0.17747,-0.157241 -0.0912,-0.06268 -0.21239,-0.137438 -0.35813,-0.2337 -0.11361,-0.07691 -0.21274,-0.145377 -0.31544,-0.212654 -0.1021,-0.06876 -0.19267,-0.13015 -0.28299,-0.187976 -0.0356,-0.02444 -0.0661,-0.0485 -0.0914,-0.07187 -0.0254,-0.02554 -0.0456,-0.04937 -0.0605,-0.07118 -0.0273,-0.04329 -0.0496,-0.08063 -0.066,-0.109306 -0.0142,-0.02904 -0.0272,-0.04821 -0.0394,-0.05746 -0.012,-0.01368 -0.0289,-0.02978 -0.0507,-0.0485 -0.0191,-0.02089 -0.0431,-0.04437 -0.0719,-0.07071 -0.0499,-0.05227 -0.0867,-0.12499 -0.10664,-0.217775 -0.0173,-0.09231 -0.0149,-0.207854 0.0137,-0.343368 0.0187,-0.08897 0.053,-0.172925 0.10274,-0.250568 0.0531,-0.07959 0.11881,-0.147022 0.19575,-0.20162 0.013,-0.01233 0.0269,-0.02689 0.0418,-0.0437 0.0149,-0.01677 0.0323,-0.03562 0.052,-0.05629 0.10413,-0.09454 0.26279,-0.18745 0.47872,-0.266607 0.21563,-0.08077 0.4995,-0.149196 0.84793,-0.18198 0.0442,-8.7e-5 0.0971,-0.0013 0.16287,-0.003 0.0656,-0.0017 0.14123,-0.0062 0.23073,-0.01241 0.0525,-0.0051 0.1065,-0.0067 0.16178,-0.0047 0.0581,0.0032 0.12273,0.0109 0.19368,0.02358 0.0986,0.01437 0.21117,0.03352 0.33573,0.05888 0.19873,0.02629 0.36387,0.06104 0.48663,0.09531 0.12315,0.03438 0.21028,0.06832 0.25767,0.09647 0.093,0.05524 0.13336,0.110288 0.12338,0.161248 -0.007,0.05313 -0.0623,0.09991 -0.15788,0.144057 -0.1051,0.04852 -0.19501,0.08346 -0.27294,0.105588 -0.0733,0.02235 -0.13127,0.03219 -0.17696,0.02902 -0.46587,-0.03563 -0.83672,-0.0064 -1.06212,0.01368 -0.24367,0.02017 -0.38561,0.0336 -0.4619,0.01376 -0.0348,-0.009 -0.0577,-0.02341 -0.0686,-0.04358 -0.0109,-0.02012 -0.007,-0.04549 0.0119,-0.07566 0.0323,-0.05058 0.12749,-0.09186 0.28822,-0.112933 0.16276,-0.02296 0.25845,-0.04365 0.28372,-0.0745 1.8e-4,2.47e-4 -0.0207,-0.02864 -0.0206,-0.02839 -0.0131,-0.0047 -0.0312,-0.0078 -0.0542,-0.009 -0.0204,-2.96e-4 -0.0438,8.08e-4 -0.0698,0.0034 -0.33724,0.04686 -0.5939,0.130232 -0.76812,0.216466 -0.17301,0.08602 -0.27196,0.179838 -0.30457,0.266488 -0.0258,0.06856 -0.0353,0.140502 -0.0291,0.214227 0.009,0.07404 0.0314,0.150646 0.0679,0.228053 0.0268,0.05343 0.069,0.122927 0.12686,0.202149 0.06,0.07679 0.14058,0.169809 0.24061,0.266254 0.13841,0.134048 0.25831,0.225246 0.34232,0.284445 0.0852,0.06005 0.13569,0.0873 0.14491,0.08932 0.0522,0.03514 0.10033,0.06945 0.14416,0.103402 0.0439,0.034 0.0802,0.06696 0.10818,0.100147 0.0245,0.02587 0.0501,0.05853 0.0793,0.09871 0.0281,0.03881 0.0649,0.09085 0.10842,0.148462 0.0257,0.03396 0.0498,0.05137 0.0698,0.05215 0.0189,-6.79e-4 0.0458,-0.0069 0.0804,-0.01877 0.013,-0.0044 0.0214,-0.0092 0.0254,-0.01424 0.005,-0.0072 0.009,-0.01502 0.0128,-0.02352 0,0 5.2e-4,-1.64e-4 5.2e-4,-1.64e-4 z"
       style="font-style:normal;font-variant:normal;font-weight:normal;font-stretch:normal;font-size:8.46667px;font-family:Mistral;-inkscape-font-specification:'Mistral, Normal';font-variant-ligatures:normal;font-variant-caps:normal;font-variant-numeric:normal;font-variant-east-asian:normal;stroke-width:0.264583"
       id="path1021-5"
       inkscape:original-d="m 105.41676,48.660611 0.16537,0.380339 q -0.0579,0.04547 -0.25632,0.07855 -0.1943,0.03307 -0.50849,0.05788 -0.36381,0.355534 -0.72761,0.591179 -0.35967,0.235644 -0.7152,0.347265 -0.0827,0.02481 -0.19017,0.05374 -0.0662,0 -0.14469,-0.02894 -0.0785,-0.02481 -0.17364,-0.07441 -0.0992,-0.06201 -0.15296,-0.119889 -0.0537,-0.05788 -0.0537,-0.11989 0,-0.124023 0.11989,-0.239778 0.11989,-0.115756 0.3514,-0.219109 0.46302,-0.214974 0.91364,-0.434082 0.0661,0 0.0951,0.02894 0.0289,0.02481 0.0289,0.06615 0,0.111621 -0.16123,0.190169 -0.1571,0.07441 -0.1571,0.107487 0.0289,0.04134 0.0496,0.04134 0.0537,0 0.23565,-0.16123 0.18603,-0.161231 0.1819,-0.202572 l -0.0207,-0.09508 0.008,-0.01654 q 0.10748,-0.09508 0.15709,-0.169499 0.0537,-0.07441 0.0537,-0.119889 0,-0.103353 -0.10336,-0.276986 -0.10335,-0.173633 -0.31006,-0.417546 -0.15709,-0.190169 -0.31419,-0.338997 -0.1571,-0.152962 -0.30179,-0.268718 -0.0579,-0.04961 -0.0992,-0.09508 -0.0413,-0.04961 -0.0661,-0.09095 -0.0455,-0.08268 -0.0744,-0.136426 -0.0248,-0.05374 -0.0455,-0.07028 -0.0207,-0.0248 -0.0579,-0.05788 -0.0331,-0.03721 -0.0827,-0.08268 -0.0868,-0.09095 -0.13643,-0.252181 -0.0455,-0.16123 -0.0455,-0.401009 0,-0.157097 0.0413,-0.301791 0.0455,-0.148828 0.12815,-0.264583 0.0124,-0.0248 0.0248,-0.05788 0.0124,-0.03307 0.0289,-0.07441 0.0951,-0.194303 0.32246,-0.417545 0.22738,-0.227377 0.59531,-0.479558 0.0496,-0.02481 0.11989,-0.06615 0.0703,-0.04134 0.1571,-0.107487 0.0496,-0.04134 0.10748,-0.07441 0.062,-0.03307 0.1447,-0.06201 0.11162,-0.04548 0.25218,-0.09922 0.20671,-0.107488 0.34313,-0.157097 0.13643,-0.04961 0.20671,-0.04961 0.13642,0 0.20257,0.08268 0.0703,0.08268 0.0703,0.239779 0,0.173633 -0.0289,0.285254 -0.0248,0.107487 -0.0703,0.144694 -0.48783,0.388607 -0.78548,0.587044 -0.29766,0.194304 -0.41755,0.194304 -0.0579,0 -0.0909,-0.03307 -0.0331,-0.03307 -0.0331,-0.09922 0,-0.111621 0.18603,-0.243913 0.18604,-0.136426 0.1819,-0.206706 l -0.0372,-0.0248 q -0.0207,0 -0.0496,0.0124 -0.0248,0.0124 -0.0537,0.03307 -0.3638,0.293522 -0.54983,0.529167 -0.1819,0.23151 -0.1819,0.405143 0,0.136426 0.0455,0.276986 0.0496,0.14056 0.14056,0.289388 0.0661,0.103353 0.19017,0.264584 0.12816,0.157096 0.32246,0.380338 0.26872,0.310059 0.41341,0.479558 0.1447,0.169499 0.16123,0.177767 0.0827,0.107487 0.14056,0.214974 0.0579,0.107487 0.0785,0.206706 0.0207,0.07855 0.0289,0.194303 0.008,0.115755 0.008,0.28112 0,0.09509 0.0289,0.111621 0.0289,0.0124 0.0951,0.0124 0.0248,0 0.0372,-0.0083 0.0165,-0.0124 0.0331,-0.02894 z" />
  </g>
  <path
     id="path939-7"
     style="fill:#00daed;fill-opacity:0.103064;stroke-width:0.815403;stroke-linecap:round"
     d="M 76.990325,28.163369 A 76.907151,32.507617 0 0 0 4.2740502,50.405261 76.907151,32.507617 0 0 0 77.245159,72.647143 a 76.907151,32.507617 0 0 0 0.254816,0 76.907151,32.507617 0 0 0 72.716275,-22.241882 76.907151,32.507617 0 0 0 -72.971091,-22.241892 76.907151,32.507617 0 0 0 -0.254834,0 z" />
</svg>
